<?xml version="1.0" encoding="UTF-8" standalone="no"?>
<!-- Created with Inkscape (http://www.inkscape.org/) -->

<svg
        width="44.710587mm"
        height="37.005806mm"
        viewBox="0 0 44.710587 37.005806"
        version="1.1"
        id="svg40400"
        inkscape:version="1.1.1 (3bf5ae0d25, 2021-09-20)"
        sodipodi:docname="galaxy.svg"
        xmlns:inkscape="http://www.inkscape.org/namespaces/inkscape"
        xmlns:sodipodi="http://sodipodi.sourceforge.net/DTD/sodipodi-0.dtd"
        xmlns="http://www.w3.org/2000/svg"
>
  <sodipodi:namedview
     id="namedview40402"
     pagecolor="#222b8d"
     bordercolor="#666666"
     borderopacity="1.0"
     inkscape:pageshadow="2"
     inkscape:pageopacity="0"
     inkscape:pagecheckerboard="false"
     inkscape:document-units="mm"
     showgrid="false"
     inkscape:zoom="0.38885732"
     inkscape:cx="-538.75802"
     inkscape:cy="39.860378"
     inkscape:window-width="2628"
     inkscape:window-height="1403"
     inkscape:window-x="1217"
     inkscape:window-y="125"
     inkscape:window-maximized="0"
     inkscape:current-layer="layer1" />
  <defs
     id="defs40397" />
  <g
     inkscape:label="Layer 1"
     inkscape:groupmode="layer"
     id="layer1"
     transform="translate(-110.32512,-14.156893)">
    <g
       id="g40785"
       transform="matrix(0.86160467,-0.50757994,0.33014567,0.56041429,36.216443,-34.271354)">
      <path
         id="path38336"
         style="opacity:1;fill:#ffffff;stroke-width:2.86499"
         d="m 55.109414,163.76636 a 5.9733553,5.9733553 0 0 1 -5.973355,5.97335 5.9733553,5.9733553 0 0 1 -5.973355,-5.97335 5.9733553,5.9733553 0 0 1 5.973355,-5.97336 5.9733553,5.9733553 0 0 1 5.973355,5.97336 z" />
      <path
         id="path40367"
         style="fill:none;fill-rule:evenodd;stroke:#ffffff;stroke-width:6.67087"
         inkscape:transform-center-x="-4.225265"
         inkscape:transform-center-y="-5.6714956"
         transform="matrix(0.26458333,0,0,0.26458333,3.7341158,0)"
         d="m 186.17692,619.28501 c 9.23124,7.86941 -4.45071,18.70714 -12.01443,19.52528 -19.46418,2.10538 -31.61872,-18.82548 -30.00288,-35.97724 2.7222,-28.89553 33.19743,-45.29192 59.94006,-40.48049 38.22304,6.87695 59.18969,47.68335 50.95809,83.90288 -1.68335,7.4068 -4.46356,14.55511 -8.18584,21.17455" />
      <path
         id="path40369"
         style="fill:none;fill-rule:evenodd;stroke:#ffffff;stroke-width:6.67087"
         inkscape:transform-center-x="-1.3377253"
         inkscape:transform-center-y="7.8780973"
         transform="matrix(0,0.26458333,-0.26458333,0,212.8027,118.76673)"
         d="m 186.17692,619.28501 c 9.23124,7.86941 -4.45071,18.70714 -12.01443,19.52528 -19.46418,2.10538 -31.61872,-18.82548 -30.00288,-35.97724 2.7222,-28.89553 33.19743,-45.29192 59.94006,-40.48049 38.22304,6.87695 59.18969,47.68335 50.95809,83.90288 -1.68335,7.4068 -4.46356,14.55511 -8.18584,21.17455" />
      <path
         id="path40371"
         style="fill:none;fill-rule:evenodd;stroke:#ffffff;stroke-width:6.67087"
         inkscape:transform-center-x="-1.3377253"
         inkscape:transform-center-y="7.8780973"
         transform="matrix(0.0684792,-0.25556787,0.25556787,0.0684792,-121.13318,165.10509)"
         d="m 186.17692,619.28501 c 9.23124,7.86941 -4.45071,18.70714 -12.01443,19.52528 -19.46418,2.10538 -31.61872,-18.82548 -30.00288,-35.97724 2.7222,-28.89553 33.19743,-45.29192 59.94006,-40.48049 38.22304,6.87695 59.18969,47.68335 50.95809,83.90288 -1.68335,7.4068 -4.46356,14.55511 -8.18584,21.17455" />
      <path
         id="path38537"
         style="fill:none;fill-rule:evenodd;stroke:#ffffff;stroke-width:6.67087"
         inkscape:transform-center-x="-1.8880741"
         inkscape:transform-center-y="-7.8786351"
         transform="matrix(0.0684792,-0.25556787,0.25556787,0.0684792,-121.13318,165.10509)"
         d="m 186.17692,619.28501 c 9.23124,7.86941 -4.45071,18.70714 -12.01443,19.52528 -19.46418,2.10538 -31.61872,-18.82548 -30.00288,-35.97724 2.7222,-28.89553 33.19743,-45.29192 59.94006,-40.48049 38.22304,6.87695 59.18969,47.68335 50.95809,83.90288 -1.68335,7.4068 -4.46356,14.55511 -8.18584,21.17455" />
      <path
         id="path38361"
         style="fill:none;fill-rule:evenodd;stroke:#ffffff;stroke-width:6.67087"
         inkscape:transform-center-x="4.2252648"
         inkscape:transform-center-y="5.6714957"
         transform="matrix(-0.26458333,0,0,-0.26458333,94.584407,327.78331)"
         d="m 186.17692,619.28501 c 9.23124,7.86941 -4.45071,18.70714 -12.01443,19.52528 -19.46418,2.10538 -31.61872,-18.82548 -30.00288,-35.97724 2.7222,-28.89553 33.19743,-45.29192 59.94006,-40.48049 38.22304,6.87695 59.18969,47.68335 50.95809,83.90288 -1.68335,7.4068 -4.46356,14.55511 -8.18584,21.17455" />
    </g>
  </g>
</svg>
