<?xml version="1.0" encoding="UTF-8" standalone="no"?>
<!-- Created with Inkscape (http://www.inkscape.org/) -->

<svg
        width="109.16722mm"
        height="109.09029mm"
        viewBox="0 0 109.16722 109.09029"
        version="1.1"
        id="svg5"
        inkscape:version="1.1.1 (3bf5ae0d25, 2021-09-20)"
        sodipodi:docname="globe.svg"
        xmlns:inkscape="http://www.inkscape.org/namespaces/inkscape"
        xmlns:sodipodi="http://sodipodi.sourceforge.net/DTD/sodipodi-0.dtd"
        xmlns="http://www.w3.org/2000/svg"
>
  <sodipodi:namedview
     id="namedview7"
     pagecolor="#ffffff"
     bordercolor="#666666"
     borderopacity="1.0"
     inkscape:pageshadow="2"
     inkscape:pageopacity="0.0"
     inkscape:pagecheckerboard="0"
     inkscape:document-units="mm"
     showgrid="false"
     inkscape:snap-global="false"
     inkscape:zoom="1.0998546"
     inkscape:cx="101.83164"
     inkscape:cy="341.40876"
     inkscape:window-width="1573"
     inkscape:window-height="1091"
     inkscape:window-x="852"
     inkscape:window-y="234"
     inkscape:window-maximized="0"
     inkscape:current-layer="layer1" />
  <defs
     id="defs2" />
  <g
     inkscape:label="Layer 1"
     inkscape:groupmode="layer"
     id="layer1"
     transform="translate(-1.7825928,-1.4149055)">
    <circle
       style="fill:#80b3ff;fill-rule:evenodd"
       id="path103"
       cx="55.850727"
       cy="55.645561"
       r="54.068134" />
    <path
       style="fill:#0044aa;stroke:none;stroke-width:0.264583px;stroke-linecap:butt;stroke-linejoin:miter;stroke-opacity:1"
       d="m 38.283672,104.80149 c -0.783657,-0.84781 -0.818192,-2.43542 0.43736,-2.84919 1.930209,-0.78733 4.066805,-0.42527 6.09533,-0.61435 6.041004,-0.22715 12.300308,-0.73478 18.115502,1.28984 0.742896,0.36136 2.470916,0.77598 2.526956,1.31715 -1.393085,0.86808 -2.786169,1.73615 -4.179254,2.60422 3.420012,0.0956 6.858947,0.0552 10.258409,0.47566 0.853094,0.42776 -1.115324,0.75811 -1.501897,0.89726 -4.422367,1.00038 -8.315654,1.48715 -11.822008,1.58343 -1.371086,0.16304 -4.286713,0.002 -5.647124,0.12418 -4.803137,-0.15259 -9.479568,-1.41401 -14.082722,-2.69638 z"
       id="path22657"
       sodipodi:nodetypes="ccccsccccccc" />
    <g
       id="g30038"
       transform="translate(-42.245571,-74.289938)"
       style="fill:#0044aa;stroke:none">
      <g
         id="g32727">
        <path
           style="fill:#0044aa;stroke:none;stroke-width:0.264583px;stroke-linecap:butt;stroke-linejoin:miter;stroke-opacity:1"
           d="m 75.612382,140.09515 c 0.564819,2.79112 3.249972,4.66752 3.541417,7.5887 -0.298726,2.59493 1.950599,4.55651 3.997624,2.28611 2.716939,-1.65842 5.838454,-2.58808 8.870143,-3.51594 2.721138,-0.59102 4.9867,4.03731 6.974876,2.07094 1.647978,-1.72471 -0.18042,2.96292 1.879478,3.11039 1.99884,2.36261 5.09516,3.48806 7.95187,1.85211 2.02652,-1.40316 2.95921,-3.87724 4.33621,-5.85854 1.06936,-1.98036 2.21747,-4.15342 2.17455,-6.44241 -0.97655,-2.96739 -3.3328,-5.21937 -5.2224,-7.63145 -2.0665,-1.30592 -1.38284,-3.77002 -2.46151,-5.6369 -1.79532,-0.73342 -2.41783,-2.63179 -3.57138,-4.05903 -1.17787,2.07826 -0.44423,5.60771 -1.7542,7.02085 -1.84436,-0.63358 -5.829119,-1.68865 -4.667255,-4.17502 1.240995,-3.03565 -2.889723,-2.19896 -4.636601,-2.18256 -2.738725,-0.23359 -1.523019,4.79985 -4.363261,3.04819 -3.188995,-1.74703 -4.008939,2.74575 -5.646609,4.53162 -0.57023,2.52463 -3.348927,2.21558 -5.254704,3.25333 -1.694323,0.67431 -2.232661,3.07583 -2.148248,4.73961 z"
           id="path16123"
           sodipodi:nodetypes="cscccccccccscccccccccccccc"
           transform="translate(-1.1464932,-0.23870913)" />
        <path
           style="fill:#0044aa;stroke:none;stroke-width:0.264583px;stroke-linecap:butt;stroke-linejoin:miter;stroke-opacity:1"
           d="m 105.40245,155.71422 c 3.1318,0.6318 2.98525,-0.29849 2.89121,0.19596 -0.094,0.49451 -0.25969,2.49815 -0.96007,2.62199 0,0 -1.44906,0.1323 -1.5756,-0.4761 0,0 -0.69032,-1.53983 -0.35554,-2.34189 z"
           id="path21729"
           sodipodi:nodetypes="cccccc"
           transform="translate(-1.1464932,-0.23870913)" />
        <path
           style="fill:#0044aa;stroke:none;stroke-width:0.264583px;stroke-linecap:butt;stroke-linejoin:miter;stroke-opacity:1"
           d="m 49.538797,115.74415 c 3.329368,-1.05263 3.062155,-5.04892 3.481269,-7.82935 0.996569,-2.44085 3.275904,-4.04001 4.797426,-6.14339 0.841566,-1.08984 2.08977,-2.502451 1.510215,-0.35145 l -1.303014,11.48198 c 0.377074,2.30602 7.947172,9.96417 7.947172,9.96417 l 18.160879,-0.55109 c -3.249021,-1.30739 -13.60177,-0.21464 -16.659671,-1.93913 0,0 -4.991209,-6.14953 -5.078015,-8.1745 -1.069166,-2.94228 1.604964,-9.43995 1.604964,-9.43995 1.790204,0.39525 5.58667,4.52785 5.74305,0.72305 0.41937,-2.76501 -0.481139,-6.717847 1.749416,-8.526867 -0.02119,0.938035 0.03258,4.192426 1.554173,2.117106 1.587081,-2.598 3.654024,-4.318491 7.275839,-6.071614 l 4.242184,-2.459483 0.682863,-5.710616 3.224298,-1.362755 c 0.359474,2.192947 3.205416,3.682602 3.055409,0.649472 1.77416,-2.33117 5.67994,-3.052208 8.362131,-3.219154 1.373245,-0.518255 3.845275,-3.786637 0.712745,-2.72054 -3.702436,-0.519211 -8.885153,-0.246619 -14.574885,1.45283 0,0 -11.880412,1.614278 -23.553433,12.870515 -13.514774,13.032236 -11.388801,16.139266 -13.850093,20.624226 0.305024,1.53885 0.610064,3.0777 0.915078,4.61654 z"
           id="path23391"
           sodipodi:nodetypes="cccccccccccccccccccccscc"
           transform="translate(-1.1464932,-0.23870913)" />
        <path
           style="fill:#0044aa;stroke:none;stroke-width:0.264583px;stroke-linecap:butt;stroke-linejoin:miter;stroke-opacity:1"
           d="m 77.110811,106.15484 c -3.886171,2.34907 -5.269454,4.85134 -8.011763,7.1472 -0.473172,0.734 0.538458,1.46121 0.694802,2.2147 0.339726,0.66733 0.63658,1.41209 1.213219,1.90956 0.632325,0.21848 1.319935,-0.017 1.977584,0.031 0.877126,-0.0357 1.75408,-0.0754 2.630977,-0.1163 0.697798,-1.52149 1.436129,-3.03174 2.108662,-4.56023 l 0.434777,-4.13428 c 0.454845,-0.24523 1.489106,-0.5482 1.142496,-1.21436 -0.521042,-0.56334 -1.298186,-0.80619 -1.958604,-1.17266 l -0.115882,-0.0528 z"
           id="path25136"
           sodipodi:nodetypes="cccccccccccc"
           transform="translate(-1.1464932,-0.23870913)" />
        <path
           style="fill:#0044aa;stroke:none;stroke-width:0.264583px;stroke-linecap:butt;stroke-linejoin:miter;stroke-opacity:1"
           d="m 111.46091,122.78923 c -1.63281,-0.55347 -2.56386,-2.40149 -4.36143,-2.58218 -0.93704,0.20133 -1.26321,1.56121 -2.32289,1.4128 -1.5553,-0.45441 -3.08251,-1.4877 -4.76817,-1.10575 -1.005034,-0.45083 0.0691,-1.77986 -0.709871,-2.39743 -0.606445,-0.36703 -1.031944,-0.98858 -1.659459,-1.35029 -2.11866,-1.44313 -4.800854,-1.98007 -6.617749,-3.87437 -0.46307,-0.3283 -0.658025,-1.53807 0.197643,-1.03569 1.69014,0.39167 3.620254,0.153 5.06727,1.279 0.226693,0.69501 1.003873,1.03518 1.684598,0.83411 1.205058,-0.31638 2.456728,-0.79222 3.713838,-0.43998 0.89182,0.17095 1.4999,0.90681 2.34829,1.18355 1.88161,0.80171 4.13131,1.15398 5.47178,2.85005 0.78224,0.78739 1.35062,1.78056 1.57718,2.87444 0.19053,0.7728 0.23984,1.56969 0.37897,2.35174 z"
           id="path25560"
           transform="translate(-1.1464932,-0.23870913)" />
        <path
           style="fill:#0044aa;stroke:none;stroke-width:0.264583px;stroke-linecap:butt;stroke-linejoin:miter;stroke-opacity:1"
           d="m 92.991791,83.691131 4.109757,-1.928995 4.389952,-1.024818 2.19805,-2.792987 1.77985,0.313724 -1.65432,3.41589 c 0,0 -3.06521,1.770727 -4.481176,2.017247 -1.415976,0.246523 -5.366181,0.614164 -5.366181,0.614164 z"
           id="path25562"
           transform="translate(-1.1464932,-0.23870913)" />
        <path
           style="fill:#0044aa;stroke:none;stroke-width:0.264583px;stroke-linecap:butt;stroke-linejoin:miter;stroke-opacity:1"
           d="m 84.467065,102.91692 c -1.520554,-1.68364 -3.952873,-3.424701 -1.849301,-5.680826 0.591434,-2.443602 2.163688,-1.051191 2.522651,0.638201 1.192798,2.313575 2.913648,4.558155 3.115313,7.222465 -1.113045,3.64893 -2.453494,-1.69467 -3.788663,-2.17984 z"
           id="path25564"
           transform="translate(-1.1464932,-0.23870913)" />
        <path
           style="fill:#0044aa;stroke:none;stroke-width:0.264583px;stroke-linecap:butt;stroke-linejoin:miter;stroke-opacity:1"
           d="m 81.63121,109.90843 c -0.418129,1.97528 -0.924958,5.68902 -0.853418,7.72712 0.666165,-0.0142 0.913371,-0.74742 1.115399,-1.26619 0.126359,-0.53183 0.716487,-1.05588 1.245201,-0.66327 0.3749,0.27986 1.360347,0.12254 1.360347,0.12254 0.204619,-0.49503 0.825442,-2.82495 0.757053,-3.38243 -0.195516,-0.88164 -1.639169,1.68974 -2.385665,1.33503 -0.473314,-0.28083 -0.764576,-3.59176 -1.238917,-3.8728 z"
           id="path26075"
           sodipodi:nodetypes="cccccccc"
           transform="translate(-1.1464932,-0.23870913)" />
        <path
           style="fill:#0044aa;stroke:none;stroke-width:0.264583px;stroke-linecap:butt;stroke-linejoin:miter;stroke-opacity:1"
           d="m 120.07824,161.62672 c 0.14203,-1.7735 3.21153,-2.52339 5.31361,-4.29973 0.58965,-0.25752 1.65437,-0.56631 2.31273,-0.51877 -1.26378,1.39654 -2.33416,3.02196 -3.92559,4.07927 -2.61495,2.17368 -2.43836,0.72538 -3.70075,0.73923 z"
           id="path27925"
           sodipodi:nodetypes="ccccc" />
        <path
           style="fill:#0044aa;stroke:none;stroke-width:0.264583px;stroke-linecap:butt;stroke-linejoin:miter;stroke-opacity:1"
           d="m 127.70458,156.80822 c 0.0288,-0.76088 -0.43558,-1.5678 -0.005,-2.28762 0.39592,-0.4027 0.27775,-0.72139 0.69371,-1.13306 0.22694,-0.19793 0.97152,-1.30279 1.02739,-0.65181 0.23019,0.63578 0.42351,1.14529 0.33306,1.87343 -0.15449,0.50398 -0.36413,1.03362 -0.84173,1.32213 -0.40458,0.28908 -0.85848,0.51579 -1.20763,0.87693 z"
           id="path27927"
           sodipodi:nodetypes="cccccccc" />
      </g>
    </g>
    <path
       id="circle31835"
       style="opacity:0.5;fill:#0044aa;fill-rule:evenodd;stroke-width:1.00789"
       d="M 56.466452,110.50517 C 86.5888,110.47186 110.98186,86.067649 110.94978,55.996943 110.92663,35.101827 99.314512,16.474956 80.455367,7.4117764 93.613264,17.170102 100.97639,32.029208 101.00527,48.252103 101.03585,76.836584 77.532791,100.03504 48.509852,100.06717 33.00493,100.08296 18.505452,93.446732 8.5092475,81.774176 17.997024,99.533274 36.304523,110.52568 56.466452,110.50517 Z"
       sodipodi:nodetypes="ccccccc"
       sodipodi:insensitive="true" />
  </g>
</svg>
