<?xml version="1.0" encoding="utf-8"?>
<!--
ISC License

Copyright (c) for portions of Lucide are held by Cole Bemis 2013-2022 as part of Feather (MIT). All other copyright (c) for Lucide are held by Lucide Contributors 2022.

Permission to use, copy, modify, and/or distribute this software for any
purpose with or without fee is hereby granted, provided that the above
copyright notice and this permission notice appear in all copies.

THE SOFTWARE IS PROVIDED "AS IS" AND THE AUTHOR DISCLAIMS ALL WARRANTIES
WITH REGARD TO THIS SOFTWARE INCLUDING ALL IMPLIED WARRANTIES OF
MERCHANTABILITY AND FITNESS. IN NO EVENT SHALL THE AUTHOR BE LIABLE FOR
ANY SPECIAL, DIRECT, INDIRECT, OR CONSEQUENTIAL DAMAGES OR ANY DAMAGES
WHATSOEVER RESULTING FROM LOSS OF USE, DATA OR PROFITS, WHETHER IN AN
ACTION OF CONTRACT, NEGLIGENCE OR OTHER TORTIOUS ACTION, ARISING OUT OF
OR IN CONNECTION WITH THE USE OR PERFORMANCE OF THIS SOFTWARE.
-->
<!-- Based on https://cdn.jsdelivr.net/npm/lucide-static/sprite.svg -->
<svg xmlns="http://www.w3.org/2000/svg" version="1.1">
    <defs>
        <symbol id="check" viewBox="0 0 24 24">
            <path d="M20 6 9 17l-5-5" />
        </symbol>
        <symbol id="eye" viewBox="0 0 24 24">
            <path d="M2 12s3-7 10-7 10 7 10 7-3 7-10 7-10-7-10-7Z" />
            <circle cx="12" cy="12" r="3" />
        </symbol>
        <symbol id="forward" viewBox="0 0 24 24">
            <polyline points="15 17 20 12 15 7" />
            <path d="M4 18v-2a4 4 0 0 1 4-4h12" />
        </symbol>
        <symbol id="mail-question-mark" viewBox="0 0 24 24">
            <path d="M22 10.5V6a2 2 0 0 0-2-2H4a2 2 0 0 0-2 2v12c0 1.1.9 2 2 2h12.5" />
            <path d="m22 7-8.97 5.7a1.94 1.94 0 0 1-2.06 0L2 7" />
            <path d="M18 15.28c.2-.4.5-.8.9-1a2.1 2.1 0 0 1 2.6.4c.3.4.5.8.5 1.3 0 1.3-2 2-2 2" />
            <path d="M20 22v.01" />
        </symbol>
        <symbol id="notebook-pen" viewBox="0 0 24 24">
            <path d="M13.4 2H6a2 2 0 0 0-2 2v16a2 2 0 0 0 2 2h12a2 2 0 0 0 2-2v-7.4" />
            <path d="M2 6h4" />
            <path d="M2 10h4" />
            <path d="M2 14h4" />
            <path d="M2 18h4" />
            <path d="M21.378 5.626a1 1 0 1 0-3.004-3.004l-5.01 5.012a2 2 0 0 0-.506.854l-.837 2.87a.5.5 0 0 0 .62.62l2.87-.837a2 2 0 0 0 .854-.506z" />
        </symbol>
        <symbol id="ticket-check" viewBox="0 0 24 24">
            <path d="M2 9a3 3 0 0 1 0 6v2a2 2 0 0 0 2 2h16a2 2 0 0 0 2-2v-2a3 3 0 0 1 0-6V7a2 2 0 0 0-2-2H4a2 2 0 0 0-2 2Z" />
            <path d="m9 12 2 2 4-4" />
        </symbol>
        <symbol id="upload" viewBox="0 0 24 24">
            <path d="M12 3v12" />
            <path d="m17 8-5-5-5 5" />
            <path d="M21 15v4a2 2 0 0 1-2 2H5a2 2 0 0 1-2-2v-4" />
        </symbol>
        <symbol id="x" viewBox="0 0 24 24">
            <path d="M18 6 6 18" />
            <path d="m6 6 12 12" />
        </symbol>
    </defs>
</svg>